# xmcd CD database file
#
# Track frame offsets:
#	150
#	20256
#	43937
#	64543
#	89349
#	106289
#	122695
#	138426
#	153557
#	169963
#	182094
#	198350
#	211831
#
# Disc length: 3122 seconds
#
# Revision: 0
# Processed by: cddbd v1.5.2PL0 Copyright (c) Steve Scherf et al.
# Submitted via: CDex 1.51
#
DISCID=b10c300d
DTITLE=Barfly - Blues
DYEAR=2002
DGENRE=Blues
TTITLE0=Booty Men
TTITLE1=Mr.Judge Man
TTITLE2=Payback Time
TTITLE3=Barfly Blues
TTITLE4=T-Men Boogie
TTITLE5=Take Your Time
TTITLE6=Nose to the Grind
TTITLE7=Jack's Bass
TTITLE8=Flip Flop and Fly
TTITLE9=Those Kids
TTITLE10=I'd Rather Be The Devil
TTITLE11=My Babe
TTITLE12=Dear Shirley
EXTD=YEAR: 2002
EXTT0=
EXTT1=
EXTT2=
EXTT3=
EXTT4=
EXTT5=
EXTT6=
EXTT7=
EXTT8=
EXTT9=
EXTT10=
EXTT11=
EXTT12=
PLAYORDER=
